<svg version="1.0" xmlns="http://www.w3.org/2000/svg" width="256.000000pt" height="256.000000pt" viewBox="0 0 256.000000 256.000000" preserveAspectRatio="xMidYMid meet">
  <g transform="translate(0.000000,256.000000) scale(0.100000,-0.100000)" fill="#000000" stroke="none">
    <path d="M985 2131 c-137 -62 -153 -246 -29 -330 103 -71 257 -34 308 73 26
    56 21 134 -13 188 -52 82 -171 113 -266 69z"/>
    <path d="M1013 1552 c-144 -47 -233 -80 -233 -88 0 -7 18 -18 39 -24 22 -6 49
    -22 60 -37 20 -25 21 -37 21 -477 0 -429 -1 -453 -20 -483 -13 -22 -32 -36
    -60 -44 -22 -7 -40 -18 -40 -26 0 -11 55 -13 295 -13 316 0 338 4 252 45 -71
    34 -70 23 -64 652 3 399 1 555 -7 562 -7 5 -101 -21 -243 -67z"/>
    <path d="M1530 755 c-81 -37 -132 -115 -133 -204 -1 -214 274 -299 398 -123
    27 40 30 51 30 121 0 68 -3 83 -28 119 -42 63 -97 96 -171 99 -40 2 -73 -2
    -96 -12z"/>
  </g>
  <style>
    @media (prefers-color-scheme:dark){:root{filter:invert(1)}}
  </style>
</svg>